<svg viewBox="0 0 255 22" fill="none" xmlns="http://www.w3.org/2000/svg">
<path d="M0 21.4008V0.300781H6.5C7.8 0.300781 9 0.600781 9.9 1.10078C10.9 1.60078 11.6 2.30078 12.1 3.30078C12.6 4.20078 12.9 5.30078 12.9 6.50078C12.9 7.70078 12.6 8.80078 12.1 9.70078C11.6 10.6008 10.8 11.3008 9.9 11.8008C8.9 12.3008 7.8 12.6008 6.5 12.6008H0.7V11.4008H6.5C7.6 11.4008 8.5 11.2008 9.3 10.8008C10.1 10.4008 10.7 9.80078 11.1 9.10078C11.5 8.40078 11.7 7.50078 11.7 6.50078C11.7 5.50078 11.5 4.60078 11.1 3.90078C10.7 3.20078 10.1 2.60078 9.3 2.20078C8.5 1.70078 7.6 1.50078 6.5 1.50078H1.3V21.4008H0ZM8.7 11.8008L13.9 21.4008H12.4L7.2 11.8008H8.7Z" fill="black"/>
<path d="M18.1 21.4008V0.300781H29.8V1.50078H19.4V10.2008H29.2V11.4008H19.4V20.2008H30.1V21.4008H18.1Z" fill="black"/>
<path d="M51.3 0.300781V21.4008H50L36.5 2.60078H36.4V21.4008H35.1V0.300781H36.4L49.8 19.1008H50V0.300781H51.3Z" fill="black"/>
<path d="M56.5 21.4008H55.1L62.7 0.300781H64.2L71.8 21.4008H70.4L63.6 1.90078H63.5L56.5 21.4008ZM58.5 13.4008H68.6V14.6008H58.5V13.4008Z" fill="black"/>
<path d="M71.9 1.50078V0.300781H86.7V1.50078H80V21.4008H78.7V1.50078H71.9Z" fill="black"/>
<path d="M88.1 21.4008H86.7L94.3 0.300781H95.8L103.4 21.4008H102L95.2 1.90078H95.1L88.1 21.4008ZM90 13.4008H100.1V14.6008H90V13.4008Z" fill="black"/>
<path d="M115.5 21.4008V0.300781H122C123.3 0.300781 124.5 0.600781 125.4 1.10078C126.3 1.60078 127.1 2.40078 127.6 3.40078C128.1 4.40078 128.4 5.40078 128.4 6.70078C128.4 7.90078 128.1 9.00078 127.6 9.90078C127.1 10.9008 126.3 11.6008 125.4 12.2008C124.5 12.8008 123.3 13.0008 122 13.0008H116.4V11.8008H122C123.1 11.8008 124 11.6008 124.8 11.1008C125.6 10.7008 126.2 10.0008 126.6 9.30078C127 8.50078 127.2 7.60078 127.2 6.60078C127.2 5.60078 127 4.70078 126.6 3.90078C126.2 3.10078 125.6 2.50078 124.8 2.10078C124 1.70078 123.1 1.40078 122 1.40078H116.8V21.3008H115.5V21.4008Z" fill="black"/>
<path d="M133.4 21.4008V0.300781H145.1V1.50078H134.6V10.2008H144.4V11.4008H134.6V20.2008H145.3V21.4008H133.4Z" fill="black"/>
<path d="M150.5 21.4008V0.300781H151.8V20.2008H162.1V21.4008H150.5Z" fill="black"/>
<path d="M166.8 21.4008V0.300781H178.5V1.50078H168V10.2008H177.8V11.4008H168V20.2008H178.7V21.4008H166.8Z" fill="black"/>
<path d="M198.6 6.9C198.4 6.2 198.2 5.5 197.8 4.8C197.4 4.1 196.9 3.5 196.4 3C195.8 2.5 195.1 2 194.3 1.7C193.5 1.4 192.6 1.2 191.7 1.2C190.2 1.2 188.9 1.6 187.7 2.4C186.6 3.2 185.7 4.3 185 5.7C184.4 7.1 184 8.8 184 10.8C184 12.7 184.3 14.4 185 15.9C185.6 17.3 186.5 18.5 187.7 19.2C188.9 20 190.2 20.4 191.8 20.4C193.2 20.4 194.4 20.1 195.5 19.4C196.6 18.8 197.4 17.8 198 16.7C198.6 15.5 198.9 14.1 198.9 12.4L199.4 12.6H192.2V11.4H200.2V12.6C200.2 14.5 199.8 16.1 199.1 17.4C198.4 18.7 197.4 19.8 196.2 20.5C195 21.2 193.5 21.6 191.9 21.6C190.1 21.6 188.5 21.2 187.2 20.3C185.8 19.4 184.8 18.1 184.1 16.5C183.4 14.9 183 13 183 10.8C183 9.2 183.2 7.7 183.6 6.4C184 5.1 184.6 3.9 185.4 3C186.2 2 187.1 1.3 188.2 0.8C189.3 0.3 190.5 0 191.8 0C193 0 194.1 0.2 195 0.6C196 1 196.8 1.5 197.5 2.2C198.2 2.9 198.8 3.6 199.2 4.4C199.6 5.2 199.9 6 200.1 6.9H198.6Z" fill="black"/>
<path d="M205.3 21.4008V0.300781H211.8C213.1 0.300781 214.3 0.600781 215.2 1.10078C216.2 1.60078 216.9 2.30078 217.4 3.30078C217.9 4.20078 218.2 5.30078 218.2 6.50078C218.2 7.70078 217.9 8.80078 217.4 9.70078C216.9 10.6008 216.1 11.3008 215.2 11.8008C214.2 12.3008 213.1 12.6008 211.8 12.6008H206V11.4008H211.8C212.9 11.4008 213.8 11.2008 214.6 10.8008C215.4 10.4008 216 9.80078 216.4 9.10078C216.8 8.40078 217 7.50078 217 6.50078C217 5.50078 216.8 4.60078 216.4 3.90078C216 3.20078 215.4 2.60078 214.6 2.20078C213.8 1.80078 212.9 1.60078 211.8 1.60078H206.6V21.5008H205.3V21.4008ZM214 11.8008L219.2 21.4008H217.7L212.5 11.8008H214Z" fill="black"/>
<path d="M224.7 0.300781V21.4008H223.4V0.300781H224.7Z" fill="black"/>
<path d="M246.9 0.300781V21.4008H245.6L232.2 2.60078H232.1V21.4008H230.8V0.300781H232.1L245.5 19.1008H245.6V0.300781H246.9Z" fill="black"/>
<path d="M254.3 0.300781V21.4008H253V0.300781H254.3Z" fill="black"/>
</svg>
